<svg xmlns="http://www.w3.org/2000/svg" viewBox="0 0 124 128">

<path style="fill:#fff" 
        d=  "M88.4228897,72.9218979c-0.4580994,1.2490005-1.0107956,2.4511032-1.6464996,3.6015015
            C99.7226868,83.2753983,109,96.794899,109,111.5996017v8.1552963C109,122.0957031,107.2050934,124,
            104.9990005,124H92v-10  c0-1.1044998-0.8955078-2-2-2c-1.1045074,0-2,0.8955002-2,2v10H40v-10c0-1.1044998-0.8955078-2-2-2c-1.1045074,
            0-2,0.8955002-2,2v10  H22.9990005C20.7938919,124,19,122.0957031,19,119.7548981v-8.1552963c0-14.8047028,
            9.276392-28.3242035,22.2235909-35.0762024  c-0.6357002-1.1512985-1.1884003-2.3535004-1.6464996-3.6015015C25.4862919,
            80.1933975,15,94.7792969,15,111.5996017v8.1552963  C15,124.3076019,18.5820007,128,22.9990005,128h82C109.4160004,
            128,113,124.3076019,113,119.7548981v-8.1552963  C113,94.7792969,102.5136871,80.1942978,88.4228897,72.9218979z">
</path>
<path style="fill:#fff"
        d=  "M42,64c0,12.1503983,9.8485909,22,21.9990005,22C76.1483917,86,86,76.1503983,86,64
            c0-12.1514015-9.8516083-22-22.0009995-22C51.8485909,42,42,51.8485985,42,64z
            M63.9990005,46C73.9247894,46,82,54.0751991,82,64  s-8.0752106,18-18.0009995,18C54.074192,82,
            46,73.9247971,46,64S54.074192,46,63.9990005,46z">
</path
><path style="fill:#fff"
        d=  "M42.6698914,19.0907993l-8.6972008,1.7031002c-0.7304993,0.1436005-1.3204002,0.6797009-1.532299,
            1.3936005  s-0.0097008,1.4862995,0.5243988,2.0049c0,0,13.6376991,13.2391987,13.642601,13.2431011
            c0.7294998,0.7080994,2.0381012,0.7705994,2.8280983-0.0429001c0.7686005-0.7919998,0.75-2.0586014-0.0429001-2.8281021
            L38.494091,23.9843998l8.1221008-1.5898991c0.6796989-0.1338005,1.2431984-0.6093006,1.4873009-1.2588005
            c0.2441978-0.6483994,0.1348-1.3779011-0.2890015-1.9267006L33.5830002,0.7773c-0.6748085-0.874-1.9316082-1.0361-2.8057079-0.3603
            c-0.8740005,0.6748-1.0351009,1.9307001-0.3602924,2.8057001L42.6698914,19.0907993z">
</path>
<path style="fill:#fff"
        d=  "M27.5722923,35.2559013l-4.8047009,2.2294998c-0.6611996,0.3075981-1.1035004,0.9491997-1.1532993,1.6767006
            c-0.0508003,0.7265968,0.2987995,1.4237976,0.9111004,1.8183975l10.3906078,6.7001991  c0.9091911,0.5879021,
            2.1718903,0.3242035,2.7646904-0.5966988c0.5986023-0.9286995,0.3310013-2.1660004-0.5966911-2.764698  
            l-7.340807-4.7334023l4.2674999-1.9804001c0.6103973-0.2831993,1.0372009-0.8544998,1.1367989-1.5195999  
            c0.0985985-0.6660004-0.1436005-1.3358994-0.6445999-1.785099L19.3339996,22.5098  c-0.823307-0.7373009-2.0860004-0.6660004-2.8242073,
            0.1562004c-0.7364006,0.8232994-0.6669998,2.0868988,0.156208,2.8241997  L27.5722923,35.2559013z">
</path>
<path style="fill:#fff"
        d=  "M80.0009995,37.9766006c0.5096893,0,1.0184937-0.1786995,1.3915939-0.5410995L95.0351868,24.1924
            c0.5341034-0.5186005,0.7363052-1.2910004,0.5244064-2.0049c-0.2119064-0.7138996-0.8018036-1.25-1.5323029-1.3936005 
            l-8.697197-1.7031002L97.5830002,3.2227001c0.6747894-0.875,0.5136871-2.1309001-0.3603134-2.8057001
            c-0.8731003-0.6738-2.1308975-0.5147-2.805687,0.3603L80.1854935,19.2089996  c-0.4238052,0.5487995-0.5332031,
            1.2783012-0.2890015,1.9267006c0.2440948,0.6494999,0.8076019,1.125,1.4872971,1.2588005  
            l8.1221008,1.5898991L78.6073914,34.5644989c-0.7929001,0.7695007-0.8115005,2.0361023-0.0429001,2.8281021  
            C78.9403915,37.7803001,79.4706879,37.9756012,80.0009995,37.9766006z">
</path>
<path style="fill:#fff"
        d=  "M94.8524933,36.0858994c0.0995941,0.6651001,0.5263977,1.2364006,1.136795,1.5195999l4.2675018,1.9804001 
            l-7.3407898,4.7334023c-0.9277115,0.5986977-1.1953125,1.8359985-0.5967102,2.764698 
            C92.7011871,47.6767998,93.3446884,48,94.0019989,48c0.3710022,0,0.7470016-0.1035004,1.0820007-0.3193016l10.3905869-6.7001991
            c0.6123047-0.3945999,0.9619064-1.0918007,0.9111023-1.8183975c-0.0497971-0.7275009-0.4920959-1.3691025-1.1532974-1.6767006
            l-4.8047028-2.2294998l10.906311-9.7657013c0.8231888-0.7373009,0.8925934-2.0009003,0.156189-2.8241997
            c-0.7362976-0.8222008-2.0009003-0.8935013-2.8241882-0.1562004L95.4970932,34.3008003
            C94.9960938,34.75,94.753891,35.419899,94.8524933,36.0858994z">
</path>

</svg>